<svg xmlns="http://www.w3.org/2000/svg" viewBox="0 0 32 32" width="32" height="32">
  <rect width="32" height="32" rx="6" fill="#101315"/>
  <g stroke="#C9CFD4" stroke-width="2.1" stroke-linecap="round" fill="none">
    <g transform="rotate(0 16 16)"><path d="M16 16 L16 4.5" /></g>
    <g transform="rotate(45 16 16)"><path d="M16 16 L16 4.5" /></g>
    <g transform="rotate(90 16 16)"><path d="M16 16 L16 4.5" /></g>
    <g transform="rotate(135 16 16)"><path d="M16 16 L16 4.5" /></g>
    <g transform="rotate(180 16 16)"><path d="M16 16 L16 4.5" /></g>
    <g transform="rotate(225 16 16)"><path d="M16 16 L16 4.5" /></g>
    <g transform="rotate(270 16 16)"><path d="M16 16 L16 4.5" /></g>
    <g transform="rotate(315 16 16)"><path d="M16 16 L16 4.5" /></g>
  </g>
  <circle cx="16" cy="16" r="4.6" fill="#101315" stroke="#C9CFD4" stroke-width="2.1"/>
  <circle cx="16" cy="16" r="1.4" fill="#FF5A1F"/>
</svg>
